<svg viewBox="0 0 408.59 94.48" xmlns="http://www.w3.org/2000/svg" xmlns:xlink="http://www.w3.org/1999/xlink"><radialGradient id="a" cx="30.74" cy="24.56" gradientTransform="matrix(.88 0 0 .89 18.58 25.12)" gradientUnits="userSpaceOnUse" r="51.09"><stop offset="0" stop-color="#00704a"/><stop offset=".53" stop-color="#006e49"/><stop offset=".71" stop-color="#006743"/><stop offset=".85" stop-color="#005c3a"/><stop offset=".96" stop-color="#004b2e"/><stop offset="1" stop-color="#004227"/></radialGradient><radialGradient id="b" cx="30.98" cy="23.84" gradientTransform="matrix(.88 0 0 .89 18.58 25.12)" gradientUnits="userSpaceOnUse" r="51.34"><stop offset="0" stop-color="#fff"/><stop offset=".4" stop-color="#fdfefe"/><stop offset=".54" stop-color="#f6faf9"/><stop offset=".64" stop-color="#ebf4f1"/><stop offset=".73" stop-color="#daeae5"/><stop offset=".8" stop-color="#c4ded6"/><stop offset=".86" stop-color="#a8cfc3"/><stop offset=".92" stop-color="#88bdac"/><stop offset=".97" stop-color="#64a993"/><stop offset="1" stop-color="#46987e"/></radialGradient><linearGradient id="c" gradientUnits="userSpaceOnUse" x1="27.67" x2="7.78" y1="61.7" y2="34.86"><stop offset="0" stop-color="#642c15"/><stop offset=".22" stop-color="#885435"/><stop offset=".45" stop-color="#a87651"/><stop offset=".57" stop-color="#b4835b"/><stop offset=".65" stop-color="#ac7a54"/><stop offset=".78" stop-color="#95613f"/><stop offset=".95" stop-color="#6f381f"/><stop offset="1" stop-color="#642c15"/></linearGradient><linearGradient id="d" x1="32.36" x2="12.47" xlink:href="#c" y1="58.14" y2="31.29"/><linearGradient id="e" x1="39.27" x2="19.35" xlink:href="#c" y1="52.97" y2="26.1"/><linearGradient id="f" x1="43.43" x2="23.51" xlink:href="#c" y1="49.82" y2="22.94"/><linearGradient id="g" gradientUnits="userSpaceOnUse" x1="35.06" x2="77.02" y1="25.39" y2="70.19"><stop offset="0" stop-color="#dbc4af"/><stop offset=".52" stop-color="#fff"/><stop offset=".65" stop-color="#fefdfc"/><stop offset=".75" stop-color="#f9f6f2"/><stop offset=".84" stop-color="#f2eae2"/><stop offset=".92" stop-color="#e8d9cc"/><stop offset="1" stop-color="#dbc4af"/></linearGradient><linearGradient id="h" x1="38.45" x2="80.49" xlink:href="#g" y1="22.03" y2="66.91"/><linearGradient id="i" x1="43.12" x2="85.16" xlink:href="#g" y1="17.55" y2="62.44"/><linearGradient id="j" x1="47.14" x2="89.11" xlink:href="#g" y1="13.8" y2="58.61"/><path d="m45.35 91.93c24.88 0 45.05-20.44 45.05-45.65s-20.17-45.65-45.05-45.65z" fill="url(#a)"/><path d="m46.06 91.93c-24.88 0-45.06-20.44-45.06-45.65s20.18-45.65 45.06-45.65z" fill="url(#b)"/><path d="m45.67 92.56c-25.18 0-45.67-20.76-45.67-46.28s20.49-46.28 45.67-46.28 45.66 20.76 45.66 46.28-20.48 46.28-45.66 46.28zm0-91.29c-24.5 0-44.42 20.19-44.42 45s19.92 45 44.42 45 44.41-20.2 44.41-45-19.92-45-44.41-45z" fill="#642c15"/><path d="m19.2 61c0 1.14.28 1.56 1.36 1.56v1.44h-5.44v-1.4c1.08 0 1.36-.42 1.36-1.56v-16.04h-3.29v16c0 1.14.29 1.56 1.36 1.56v1.44h-5.44v-1.4c1.08 0 1.36-.42 1.36-1.56v-33.32c0-1.14-.28-1.56-1.36-1.56v-1.36h5.44v1.36c-1.07 0-1.36.42-1.36 1.56v15.88h3.29v-15.88c0-1.14-.28-1.56-1.36-1.56v-1.36h5.44v1.36c-1.08 0-1.36.42-1.36 1.56z" fill="url(#c)"/><path d="m27 39.11c0-1.57 0-3.24-1.3-3.24s-1.7 1.83-1.7 3.34a5.28 5.28 0 0 0 .74 2.92 3.26 3.26 0 0 1 .39 1.73 1.36 1.36 0 0 1 -1.3 1.46c-.79 0-1.53-1-1.53-4.44 0-4.38 1.08-6.58 3.57-6.58s3.46 1.83 3.46 7.52v18.75c0 1.14.45 1.82 1.36 1.82v1.61h-.85a3 3 0 0 1 -2-1 5.35 5.35 0 0 1 -2.61 1c-1.42 0-3-1.25-3-6.47a17.47 17.47 0 0 1 3.51-11 5.76 5.76 0 0 0 1.26-3.4zm0 8h-.1c-1.59 2.56-2.38 5.32-2.38 10.34 0 3.44.22 4.9 1.13 4.9a1.37 1.37 0 0 0 1.35-1.42z" fill="url(#d)"/><path d="m34.71 61c0 1.14.29 1.56 1.37 1.67v1.33h-5v-1.29c1.07-.11 1.36-.53 1.36-1.67v-33.32c0-1.14-.29-1.56-1.36-1.67v-1.25h3.62z" fill="url(#e)"/><path d="m40.15 61c0 1.14.29 1.56 1.36 1.67v1.33h-5v-1.29c1.07-.11 1.36-.53 1.36-1.67v-23.5c0-1.15-.29-1.78-1.7-2v-1.24h1.7v-6.16c0-2.09.79-3.34 2.89-3.34s2.89 1.46 2.89 3.34c0 1.67-.4 3-1.31 3s-1.19-.94-1.19-1.51a3.65 3.65 0 0 1 .34-1.57 2.91 2.91 0 0 0 .34-1.25c0-.42-.45-.63-1-.63s-.74.52-.74 1.31v6.81h1.59v1.26c-1.3.2-1.59.83-1.59 2z" fill="url(#f)"/><path d="m48.13 27.72c0-1.14-.26-1.56-1.24-1.56v-1.36h4.18l1.8 23.29h.13l1.83-23.29h4v1.36c-1 0-1.23.42-1.23 1.56v33.28c0 1.14.25 1.56 1.23 1.56v1.44h-3.95v-1.4c.77 0 1-.42 1-1.56v-26.74h-.08l-2.26 29.7h-1.39l-2.27-29.7h-.1v26.7c0 1.14.25 1.56 1 1.56v1.44h-3.89v-1.4c1 0 1.24-.42 1.24-1.56z" fill="url(#g)"/><path d="m67.13 48.82c0 11.59-.72 15.14-3.29 15.14s-3.3-3.55-3.3-15.14c0-11 .72-14.52 3.3-14.52s3.29 3.55 3.29 14.52zm-4.43 0c0 11 0 13.57 1.14 13.57s1.16-2.61 1.16-13.57c0-9.87 0-13-1.13-13s-1.17 3.18-1.17 13z" fill="url(#h)"/><path d="m76 48.82c0 11.59-.73 15.18-3.31 15.18s-3.3-3.55-3.3-15.14c0-11 .73-14.52 3.3-14.52s3.31 3.51 3.31 14.48zm-4.43 0c0 11 0 13.57 1.13 13.57s1.14-2.61 1.14-13.57c0-9.87 0-13-1.14-13s-1.14 3.18-1.14 13z" fill="url(#i)"/><path d="m78.56 37.23c0-1.15-.26-1.57-1.24-1.67v-1.26h3.3v.79h.1a1.82 1.82 0 0 1 1.45-.79c1.54 0 2.73 1.15 2.73 5.75v20.95c0 1.14.25 1.56 1.23 1.67v1.33h-4.13v-1.29c.57-.11.82-.53.82-1.67v-21.52c0-1.77 0-3.65-.92-3.65-1.08 0-1.29 1.57-1.29 2.82v22.31c0 1.14.26 1.56.88 1.67v1.33h-4.17v-1.29c1-.11 1.24-.53 1.24-1.67z" fill="url(#j)"/><g fill="#b4835b"><path d="m47.13 72.66v-4.73h2v.87h-1.13v1h1v.87h-1v1.11h1.06v.92z"/><path d="m50.05 72.66v-4.73h.8a2.1 2.1 0 0 1 1.62.58 2.64 2.64 0 0 1 .53 1.79 3.31 3.31 0 0 1 -.19 1.21 1.87 1.87 0 0 1 -.62.8 1.42 1.42 0 0 1 -.55.27 3.5 3.5 0 0 1 -.89.08zm.92-.87h.08a.88.88 0 0 0 .76-.38 2 2 0 0 0 .26-1.1 2 2 0 0 0 -.26-1.14.85.85 0 0 0 -.77-.38h-.04z"/><path d="m56.8 67.93v3a7 7 0 0 1 0 .78 1.08 1.08 0 0 1 -.11.37 1.06 1.06 0 0 1 -.49.51 1.81 1.81 0 0 1 -.83.16 1.86 1.86 0 0 1 -.83-.16 1.1 1.1 0 0 1 -.49-.51 1.15 1.15 0 0 1 -.11-.38 6.74 6.74 0 0 1 0-.77v-3h.93v3a1.53 1.53 0 0 0 .12.75.46.46 0 0 0 .41.16c.21 0 .35 0 .42-.17a1.49 1.49 0 0 0 .11-.74v-3z"/><path d="m60.24 72.61a1.43 1.43 0 0 1 -.27.09h-.27a1.83 1.83 0 0 1 -1.46-.66 2.58 2.58 0 0 1 -.56-1.72 2.79 2.79 0 0 1 .55-1.79 1.72 1.72 0 0 1 1.43-.68 1.42 1.42 0 0 1 .3 0 1.31 1.31 0 0 1 .28.09v.88l-.24-.04h-.25a.9.9 0 0 0 -.76.42 1.94 1.94 0 0 0 -.29 1.11 1.76 1.76 0 0 0 .3 1.07.91.91 0 0 0 .77.42 1 1 0 0 0 .24 0 1.25 1.25 0 0 0 .25-.09z"/><path d="m60.75 72.66 1.09-4.73h1l1 4.73h-.94l-.15-.83h-.94l-.14.83zm1.25-1.56h.62c-.06-.33-.12-.68-.17-1s-.1-.75-.14-1.15c0 .36-.09.71-.15 1.08s-.1.69-.16 1.07z"/><path d="m64.79 72.66v-3.86h-.72v-.87h2.37v.87h-.72v3.86z"/><path d="m67.27 72.66v-4.73h1v4.73z"/><path d="m72.45 70.36a3 3 0 0 1 -.45 1.73 1.4 1.4 0 0 1 -1.2.63 1.37 1.37 0 0 1 -1.21-.64 3.15 3.15 0 0 1 -.43-1.78 3.1 3.1 0 0 1 .44-1.79 1.43 1.43 0 0 1 2.4 0 3.22 3.22 0 0 1 .45 1.85zm-1.64 1.46a.56.56 0 0 0 .53-.38 2.76 2.76 0 0 0 .18-1.14 2.81 2.81 0 0 0 -.18-1.15.56.56 0 0 0 -.53-.38.58.58 0 0 0 -.54.38 3.94 3.94 0 0 0 0 2.29.57.57 0 0 0 .54.38z"/><path d="m73.36 72.66v-4.73h.94l1 2.55c0 .08.06.21.11.38l.18.59c-.05-.33-.09-.64-.11-.92a7.28 7.28 0 0 1 0-.78v-1.82h.87v4.73h-.87l-1-2.65a3.76 3.76 0 0 1 -.14-.48c0-.13-.06-.23-.08-.3v.62s0 .5 0 .82v2z"/><path d="m47.48 79.31v-4.74h1v4.74z"/><path d="m49.54 79.31v-4.74h.94l1 2.55c0 .09.06.21.11.38l.18.6c0-.34-.09-.64-.11-.92a7.33 7.33 0 0 1 0-.79v-1.82h.87v4.74h-.87l-1-2.65s-.06-.2-.14-.48-.06-.24-.08-.31c0 .18 0 .39.05.62s0 .51 0 .83v2z"/><path d="m55.91 79.26-.28.08a1.24 1.24 0 0 1 -.27 0 1.81 1.81 0 0 1 -1.45-.66 2.59 2.59 0 0 1 -.56-1.68 2.75 2.75 0 0 1 .55-1.79 1.74 1.74 0 0 1 1.42-.68 1.55 1.55 0 0 1 .31 0l.28.08v.89a1.38 1.38 0 0 0 -.27-.08 1 1 0 0 0 -.24 0 .87.87 0 0 0 -.76.42 1.87 1.87 0 0 0 -.29 1.11 1.81 1.81 0 0 0 .3 1.08.9.9 0 0 0 .77.41h.24l.25-.08z"/><path d="m57.73 78.77a.58.58 0 0 1 -.16.41.57.57 0 0 1 -.41.17.56.56 0 0 1 -.4-.17.58.58 0 0 1 -.16-.41.6.6 0 0 1 .16-.41.55.55 0 0 1 .4-.16.52.52 0 0 1 .4.16.57.57 0 0 1 .17.41z"/></g><text fill="#602a11" font-family="WillowStd, Willow Std" font-size="75.48" letter-spacing=".01em" transform="translate(98.08 72.66)">H<tspan letter-spacing=".02em" x="17.96" y="0">alf</tspan><tspan letter-spacing=".02em" x="51.02" y="0">M</tspan><tspan letter-spacing=".02em" x="71.48" y="0">oon Education Inc.</tspan></text></svg>